<?xml version="1.0" encoding="utf-8"?>
<!-- Generator: Adobe Illustrator 24.3.0, SVG Export Plug-In . SVG Version: 6.00 Build 0)  -->
<svg version="1.1" id="Layer_1" xmlns="http://www.w3.org/2000/svg" xmlns:xlink="http://www.w3.org/1999/xlink" x="0px" y="0px"
	 viewBox="0 0 28.35 28.35" style="enable-background:new 0 0 28.35 28.35;" xml:space="preserve">
<style type="text/css">
	.st0{fill:#460437;}
	.st1{fill:#CB74AF;}
	.st2{fill:#3FC7F4;}
	.st3{fill:#0A1F26;}
	.st4{fill-rule:evenodd;clip-rule:evenodd;fill:#DBF1FD;}
	.st5{fill:#301111;}
	.st6{fill:#F89A1C;}
	.st7{fill:#451022;}
	.st8{fill:#EE3A68;}
	.st9{fill:#2789CA;}
	.st10{fill:#1171B3;}
	.st11{fill:#0978B9;}
	.st12{fill:#3C99D4;}
	.st13{fill:#1D1C57;}
	.st14{fill:#9696CA;}
	.st15{fill:#0C131F;}
	.st16{fill-rule:evenodd;clip-rule:evenodd;fill:#FFFFFF;}
	.st17{fill:#FFFFFF;}
	.st18{fill:#E44F26;}
	.st19{fill:#010101;}
	.st20{fill:#F1662A;}
	.st21{fill:#EBEBEB;}
	.st22{fill:url(#SVGID_1_);}
	.st23{fill:url(#SVGID_2_);stroke:#FFFFFF;stroke-width:0.1863;}
	.st24{fill:#464342;}
	.st25{fill:#00749A;}
	.st26{fill:#8F183D;}
	.st27{fill:#DA81B5;}
	.st28{fill:#6D459B;}
	.st29{fill:#B88A2D;}
	.st30{fill:#FDB715;}
	.st31{fill:#809E3D;}
	.st32{fill:#ACD13D;}
	.st33{fill:#1784B5;}
	.st34{fill:#24ABE2;}
	.st35{fill:#FFFFFF;stroke:#A5A7AA;stroke-width:0.4607;stroke-miterlimit:1;}
	.st36{fill:none;}
	.st37{fill:#FFFFFF;stroke:#FFFFFF;stroke-width:0.4522;stroke-miterlimit:1;}
	.st38{clip-path:url(#path3830_2_);}
	.st39{fill:#F6DF19;}
	.st40{fill:#435BA9;}
	.st41{fill:#4767B0;}
</style>
<g id="Layer_2_1_">
	<g id="Surfaces">
		<g id="UI_UX_Surface">
			<g id="Outline_no_shadow">
				<path class="st0" d="M5.02,0.35h18.31c2.78,0,5.02,2.25,5.02,5.02v17.6c0,2.78-2.25,5.02-5.02,5.02H5.02
					C2.24,27.99,0,25.75,0,22.97V5.37C0,2.59,2.25,0.35,5.02,0.35z"/>
			</g>
		</g>
	</g>
	<g id="Outlined_Mnemonics_Logos">
		<g id="Xd">
			<path class="st1" d="M14.91,7.62l-3.54,5.85l3.78,6.2c0.02,0.05,0.03,0.1,0.02,0.14c-0.01,0.05-0.06,0.01-0.13,0.02h-2.7
				c-0.19,0-0.32-0.01-0.4-0.13c-0.25-0.5-0.51-0.98-0.75-1.47c-0.25-0.48-0.52-0.98-0.81-1.49c-0.28-0.51-0.57-1.02-0.85-1.54H9.5
				c-0.25,0.51-0.52,1.01-0.79,1.53c-0.27,0.51-0.54,1.02-0.81,1.51c-0.27,0.5-0.54,1-0.82,1.49c-0.05,0.12-0.14,0.13-0.27,0.13
				H4.22c-0.05,0-0.09,0.02-0.09-0.03c-0.01-0.05,0-0.1,0.02-0.13l3.67-6.03L4.25,7.61c-0.03-0.05-0.05-0.1-0.02-0.12
				C4.25,7.45,4.3,7.44,4.35,7.44h2.68c0.06,0,0.12,0.01,0.16,0.02c0.05,0.02,0.09,0.06,0.12,0.11C7.54,8.08,7.8,8.59,8.07,9.1
				c0.28,0.51,0.56,1,0.85,1.5c0.28,0.49,0.54,0.99,0.79,1.5h0.02c0.25-0.52,0.51-1.03,0.77-1.53c0.26-0.49,0.53-0.99,0.81-1.49
				c0.27-0.49,0.53-1,0.79-1.49c0.01-0.05,0.03-0.1,0.07-0.12c0.05-0.02,0.1-0.03,0.15-0.02h2.5c0.06-0.01,0.12,0.02,0.13,0.09
				C14.96,7.54,14.93,7.6,14.91,7.62L14.91,7.62z"/>
			<path class="st1" d="M20.37,20.08c-0.87,0.01-1.75-0.16-2.54-0.53c-0.74-0.34-1.36-0.91-1.79-1.6c-0.44-0.72-0.65-1.62-0.65-2.69
				c-0.01-0.87,0.22-1.74,0.65-2.49c0.45-0.77,1.1-1.41,1.88-1.83c0.83-0.46,1.82-0.69,2.99-0.69c0.06,0,0.14,0,0.25,0.01
				c0.11,0.01,0.23,0.01,0.37,0.02V6.54c0-0.09,0.03-0.13,0.12-0.13h2.4c0.06-0.01,0.11,0.03,0.12,0.09c0,0.01,0,0.02,0,0.02v11.24
				c0,0.22,0.01,0.45,0.02,0.71c0.02,0.25,0.03,0.48,0.05,0.69c0,0.09-0.03,0.15-0.12,0.19c-0.61,0.26-1.26,0.45-1.93,0.57
				C21.58,20.02,20.98,20.08,20.37,20.08z M21.52,17.72v-5.2c-0.11-0.02-0.22-0.05-0.32-0.06c-0.13-0.01-0.26-0.02-0.39-0.02
				c-0.46,0-0.92,0.1-1.33,0.31c-0.4,0.2-0.74,0.49-1,0.87c-0.26,0.38-0.39,0.88-0.39,1.5c-0.01,0.41,0.06,0.83,0.2,1.22
				c0.12,0.32,0.29,0.6,0.53,0.84c0.23,0.22,0.5,0.38,0.81,0.47c0.32,0.11,0.65,0.15,0.98,0.15c0.18,0,0.34-0.01,0.5-0.02
				C21.25,17.79,21.38,17.76,21.52,17.72z"/>
		</g>
	</g>
</g>
</svg>
