<?xml version="1.0" encoding="utf-8"?>
<!-- Generator: Adobe Illustrator 24.3.0, SVG Export Plug-In . SVG Version: 6.00 Build 0)  -->
<svg version="1.1" id="Layer_1" xmlns="http://www.w3.org/2000/svg" xmlns:xlink="http://www.w3.org/1999/xlink" x="0px" y="0px"
	 viewBox="0 0 28.35 28.35" style="enable-background:new 0 0 28.35 28.35;" xml:space="preserve">
<style type="text/css">
	.st0{fill:#460437;}
	.st1{fill:#CB74AF;}
	.st2{fill:#3FC7F4;}
	.st3{fill:#0A1F26;}
	.st4{fill-rule:evenodd;clip-rule:evenodd;fill:#DBF1FD;}
	.st5{fill:#301111;}
	.st6{fill:#F89A1C;}
	.st7{fill:#451022;}
	.st8{fill:#EE3A68;}
	.st9{fill:#2789CA;}
	.st10{fill:#1171B3;}
	.st11{fill:#0978B9;}
	.st12{fill:#3C99D4;}
	.st13{fill:#1D1C57;}
	.st14{fill:#9696CA;}
	.st15{fill:#0C131F;}
	.st16{fill-rule:evenodd;clip-rule:evenodd;fill:#FFFFFF;}
	.st17{fill:#FFFFFF;}
	.st18{fill:#E44F26;}
	.st19{fill:#010101;}
	.st20{fill:#F1662A;}
	.st21{fill:#EBEBEB;}
	.st22{fill:url(#SVGID_1_);}
	.st23{fill:url(#SVGID_2_);stroke:#FFFFFF;stroke-width:0.1863;}
	.st24{fill:#464342;}
	.st25{fill:#00749A;}
	.st26{fill:#8F183D;}
	.st27{fill:#DA81B5;}
	.st28{fill:#6D459B;}
	.st29{fill:#B88A2D;}
	.st30{fill:#FDB715;}
	.st31{fill:#809E3D;}
	.st32{fill:#ACD13D;}
	.st33{fill:#1784B5;}
	.st34{fill:#24ABE2;}
	.st35{fill:#FFFFFF;stroke:#A5A7AA;stroke-width:0.4607;stroke-miterlimit:1;}
	.st36{fill:none;}
	.st37{fill:#FFFFFF;stroke:#FFFFFF;stroke-width:0.4522;stroke-miterlimit:1;}
	.st38{clip-path:url(#path3830_2_);}
	.st39{fill:#F6DF19;}
	.st40{fill:#435BA9;}
	.st41{fill:#4767B0;}
</style>
<g id="After_Effects" transform="translate(639 308)">
	<path id="_3" class="st13" d="M-634.57-308h19.49c2.44,0,4.43,1.98,4.43,4.43v19.49c0,2.44-1.98,4.43-4.43,4.43h-19.49
		c-2.44,0-4.43-1.98-4.43-4.43v-19.49C-639-306.02-637.02-308-634.57-308z"/>
	<path id="_4" class="st14" d="M-627.36-290.7h-4.33l-0.88,2.86c-0.02,0.1-0.12,0.18-0.23,0.17h-2.19c-0.12,0-0.17-0.07-0.13-0.2
		l3.75-10.64c0.04-0.11,0.07-0.24,0.11-0.39c0.05-0.25,0.07-0.5,0.07-0.76c-0.01-0.06,0.03-0.12,0.1-0.13c0.01,0,0.02,0,0.03,0h2.98
		c0.09,0,0.14,0.03,0.15,0.1l4.25,11.84c0.04,0.12,0,0.19-0.11,0.19h-2.43c-0.09,0.01-0.16-0.05-0.19-0.13L-627.36-290.7z
		 M-631.01-292.69h2.96c-0.07-0.25-0.16-0.76-0.26-1.07c-0.1-0.31-0.2-0.65-0.32-1c-0.11-0.36-0.23-0.71-0.33-1.07
		c-0.11-0.35-0.22-0.7-0.31-1.03c-0.1-0.33-0.18-0.63-0.26-0.91h-0.02c-0.11,0.5-0.24,1-0.39,1.5c-0.18,0.56-0.35,1.13-0.53,1.72
		C-630.66-293.96-630.84-293.19-631.01-292.69z"/>
	<path id="_5" class="st14" d="M-616.8-291.72h-3.69c0.05,0.38,0.18,0.74,0.38,1.07c0.21,0.31,0.5,0.56,0.85,0.7
		c0.48,0.22,1,0.32,1.52,0.32c0.35,0.01,0.7-0.02,1.05-0.08c0.37-0.07,0.74-0.18,1.09-0.33c0.06-0.05,0.09-0.02,0.1,0.09v1.78
		c0.01,0.05-0.01,0.1-0.03,0.14c-0.02,0.03-0.05,0.06-0.09,0.09c-0.39,0.18-0.8,0.32-1.22,0.4c-0.5,0.07-1.01,0.09-1.52,0.06
		c-0.77,0.02-1.53-0.12-2.23-0.41c-0.57-0.25-1.07-0.63-1.46-1.11c-0.37-0.45-0.64-0.97-0.8-1.53c-0.16-0.55-0.24-1.12-0.24-1.7
		c0-0.62,0.1-1.25,0.29-1.84c0.19-0.58,0.48-1.12,0.87-1.59c0.39-0.46,0.86-0.84,1.41-1.11c0.61-0.28,1.28-0.42,1.95-0.4
		c0.65-0.01,1.3,0.12,1.9,0.37c0.48,0.22,0.9,0.55,1.22,0.96c0.31,0.4,0.54,0.84,0.69,1.32c0.15,0.46,0.22,0.94,0.23,1.42
		c0,0.27-0.01,0.53-0.03,0.75c-0.02,0.14-0.04,0.27-0.07,0.4c-0.01,0.09-0.09,0.15-0.17,0.15c-0.07,0-0.2,0.01-0.39,0.03
		s-0.5,0.01-0.77,0.02C-616.22-291.72-616.5-291.72-616.8-291.72z M-620.5-293.2h2.45c0.3,0,0.52-0.01,0.66-0.01
		c0.09,0,0.18-0.01,0.27-0.03v-0.11c0.01-0.23,0-0.45-0.04-0.67c-0.21-0.66-0.83-1.09-1.52-1.07c-0.65-0.04-1.25,0.31-1.55,0.88
		C-620.35-293.89-620.45-293.55-620.5-293.2z"/>
</g>
</svg>
