<?xml version="1.0" encoding="utf-8"?>
<!-- Generator: Adobe Illustrator 24.3.0, SVG Export Plug-In . SVG Version: 6.00 Build 0)  -->
<svg version="1.1" id="Layer_1" xmlns="http://www.w3.org/2000/svg" xmlns:xlink="http://www.w3.org/1999/xlink" x="0px" y="0px"
	 viewBox="0 0 28.35 28.35" style="enable-background:new 0 0 28.35 28.35;" xml:space="preserve">
<style type="text/css">
	.st0{fill:#460437;}
	.st1{fill:#CB74AF;}
	.st2{fill:#3FC7F4;}
	.st3{fill:#0A1F26;}
	.st4{fill-rule:evenodd;clip-rule:evenodd;fill:#DBF1FD;}
	.st5{fill:#301111;}
	.st6{fill:#F89A1C;}
	.st7{fill:#451022;}
	.st8{fill:#EE3A68;}
	.st9{fill:#2789CA;}
	.st10{fill:#1171B3;}
	.st11{fill:#0978B9;}
	.st12{fill:#3C99D4;}
	.st13{fill:#1D1C57;}
	.st14{fill:#9696CA;}
	.st15{fill:#0C131F;}
	.st16{fill-rule:evenodd;clip-rule:evenodd;fill:#FFFFFF;}
	.st17{fill:#FFFFFF;}
	.st18{fill:#E44F26;}
	.st19{fill:#010101;}
	.st20{fill:#F1662A;}
	.st21{fill:#EBEBEB;}
	.st22{fill:url(#SVGID_1_);}
	.st23{fill:url(#SVGID_2_);stroke:#FFFFFF;stroke-width:0.1863;}
	.st24{fill:#464342;}
	.st25{fill:#00749A;}
	.st26{fill:#8F183D;}
	.st27{fill:#DA81B5;}
	.st28{fill:#6D459B;}
	.st29{fill:#B88A2D;}
	.st30{fill:#FDB715;}
	.st31{fill:#809E3D;}
	.st32{fill:#ACD13D;}
	.st33{fill:#1784B5;}
	.st34{fill:#24ABE2;}
	.st35{fill:#FFFFFF;stroke:#A5A7AA;stroke-width:0.4607;stroke-miterlimit:1;}
	.st36{fill:none;}
	.st37{fill:#FFFFFF;stroke:#FFFFFF;stroke-width:0.4522;stroke-miterlimit:1;}
	.st38{clip-path:url(#path3830_2_);}
	.st39{fill:#F6DF19;}
	.st40{fill:#435BA9;}
	.st41{fill:#4767B0;}
</style>
<g id="layer1_2_" transform="translate(-193.633,-276.3622)">
	<g id="g3013" transform="translate(119,276.3622)">
		<polygon id="polygon2989" class="st40" points="98.85,5.57 97.02,26.07 88.79,28.35 80.59,26.07 78.76,5.57 		"/>
		<polygon id="polygon2991" class="st41" points="95.45,24.76 97.02,7.25 88.81,7.25 88.81,26.6 		"/>
		<polygon id="polygon2993" class="st21" points="82.95,14.85 83.18,17.36 88.81,17.36 88.81,14.85 		"/>
		<polygon id="polygon2995" class="st21" points="88.81,9.76 88.8,9.76 82.5,9.76 82.73,12.28 88.81,12.28 		"/>
		<polygon id="polygon2997" class="st21" points="88.81,23.99 88.81,21.38 88.8,21.38 86,20.63 85.82,18.62 84.46,18.62 
			83.29,18.62 83.64,22.57 88.79,24 		"/>
		<path id="path2999" class="st19" d="M83.49,0h3.05v1.27h-1.77v1.27h1.77v1.27h-3.05V0z"/>
		<path id="path3001" class="st19" d="M87.15,0h3.05v1.11h-1.77v0.22h1.77v2.55h-3.05V2.71h1.77V2.49h-1.77V0z"/>
		<path id="path3003" class="st19" d="M90.8,0h3.05v1.11h-1.77v0.22h1.77v2.55H90.8V2.71h1.77V2.49H90.8V0z"/>
		<polygon id="polygon3005" class="st17" points="91.89,17.36 91.6,20.62 88.8,21.38 88.8,24 93.95,22.57 93.99,22.14 94.58,15.52 
			94.64,14.85 95.1,9.76 88.8,9.76 88.8,12.28 92.34,12.28 92.11,14.85 88.8,14.85 88.8,17.36 		"/>
	</g>
</g>
</svg>
