<?xml version="1.0" encoding="utf-8"?>
<!-- Generator: Adobe Illustrator 24.3.0, SVG Export Plug-In . SVG Version: 6.00 Build 0)  -->
<svg version="1.1" id="Layer_1" xmlns="http://www.w3.org/2000/svg" xmlns:xlink="http://www.w3.org/1999/xlink" x="0px" y="0px"
	 viewBox="0 0 28.35 28.35" style="enable-background:new 0 0 28.35 28.35;" xml:space="preserve">
<style type="text/css">
	.st0{fill:#460437;}
	.st1{fill:#CB74AF;}
	.st2{fill:#3FC7F4;}
	.st3{fill:#0A1F26;}
	.st4{fill-rule:evenodd;clip-rule:evenodd;fill:#DBF1FD;}
	.st5{fill:#301111;}
	.st6{fill:#F89A1C;}
	.st7{fill:#451022;}
	.st8{fill:#EE3A68;}
	.st9{fill:#2789CA;}
	.st10{fill:#1171B3;}
	.st11{fill:#0978B9;}
	.st12{fill:#3C99D4;}
	.st13{fill:#1D1C57;}
	.st14{fill:#9696CA;}
	.st15{fill:#0C131F;}
	.st16{fill-rule:evenodd;clip-rule:evenodd;fill:#FFFFFF;}
	.st17{fill:#FFFFFF;}
	.st18{fill:#E44F26;}
	.st19{fill:#010101;}
	.st20{fill:#F1662A;}
	.st21{fill:#EBEBEB;}
	.st22{fill:url(#SVGID_1_);}
	.st23{fill:url(#SVGID_2_);stroke:#FFFFFF;stroke-width:0.1863;}
	.st24{fill:#464342;}
	.st25{fill:#00749A;}
	.st26{fill:#8F183D;}
	.st27{fill:#DA81B5;}
	.st28{fill:#6D459B;}
	.st29{fill:#B88A2D;}
	.st30{fill:#FDB715;}
	.st31{fill:#809E3D;}
	.st32{fill:#ACD13D;}
	.st33{fill:#1784B5;}
	.st34{fill:#24ABE2;}
	.st35{fill:#FFFFFF;stroke:#A5A7AA;stroke-width:0.4607;stroke-miterlimit:1;}
	.st36{fill:none;}
	.st37{fill:#FFFFFF;stroke:#FFFFFF;stroke-width:0.4522;stroke-miterlimit:1;}
	.st38{clip-path:url(#path3830_2_);}
	.st39{fill:#F6DF19;}
	.st40{fill:#435BA9;}
	.st41{fill:#4767B0;}
</style>
<g>
	<g>
		<g>
			<g>
				<g>
					<path class="st28" d="M26.7,0L1.39,0.23C0.61,0.24-0.01,0.87,0,1.65l0.23,25.31c0.01,0.78,0.64,1.4,1.42,1.39l25.31-0.23
						c0.78-0.01,1.4-0.64,1.39-1.42L28.12,1.39C28.11,0.61,27.48-0.01,26.7,0"/>
				</g>
			</g>
		</g>
	</g>
	<g>
		<g>
			<path class="st17" d="M23.08,14.09c0.15,4.82-3.89,8.99-8.81,9.03c-4.78,0.04-8.98-3.75-9.02-8.88
				c-0.04-4.92,3.85-8.98,8.89-9.01C19.31,5.2,23.15,9.48,23.08,14.09z M22.36,14.11c0.02-4.45-3.72-8.1-8.11-8.13
				c-4.38-0.03-8.31,3.48-8.26,8.27c0.05,4.55,3.63,8.14,8.26,8.11C19.03,22.33,22.45,18.37,22.36,14.11z"/>
			<path class="st17" d="M11.22,14.27c-0.01-1.41-0.03-2.82-0.04-4.23c0-0.48,0.05-0.54,0.52-0.55c1.03-0.01,2.08-0.11,3.1,0.02
				c1.97,0.24,3.19,1.41,3.67,3.34c0.29,1.18,0.25,2.34-0.17,3.48c-0.62,1.7-2.09,2.74-3.95,2.81c-0.82,0.03-1.64,0.02-2.46,0.03
				c-0.5,0-0.63-0.14-0.64-0.65C11.25,17.1,11.23,15.68,11.22,14.27z M11.94,14.33c0.01,1.24,0.03,2.47,0.03,3.71
				c0,0.32,0.1,0.43,0.42,0.41c0.59-0.03,1.18-0.01,1.77-0.02c1.77-0.04,3.2-1.12,3.56-2.78c0.13-0.61,0.12-1.25,0.11-1.88
				c-0.04-1.83-1.11-3.17-2.91-3.49c-0.85-0.15-1.74-0.05-2.61-0.08c-0.32-0.01-0.42,0.1-0.41,0.42
				C11.93,11.86,11.93,13.09,11.94,14.33z"/>
		</g>
	</g>
</g>
</svg>
