<?xml version="1.0" encoding="utf-8"?>
<!-- Generator: Adobe Illustrator 26.1.0, SVG Export Plug-In . SVG Version: 6.00 Build 0)  -->
<svg version="1.1" id="Layer_1" xmlns="http://www.w3.org/2000/svg" xmlns:xlink="http://www.w3.org/1999/xlink" x="0px" y="0px"
	 viewBox="0 0 28.4 28.4" style="enable-background:new 0 0 28.4 28.4;" xml:space="preserve">
<style type="text/css">
	.st0{fill:#1E1E1E;}
	.st1{fill:#0ACF83;}
	.st2{fill:#A259FF;}
	.st3{fill:#F24E1E;}
	.st4{fill:#FF7262;}
	.st5{fill:#1ABCFE;}
</style>
<g id="Illustrator" transform="translate(2303 308)">
	<path id="_16" class="st0" d="M-2298.6-308h19.5c2.4,0,4.4,2,4.4,4.4v19.5c0,2.4-2,4.4-4.4,4.4h-19.5c-2.4,0-4.4-2-4.4-4.4v-19.5
		C-2303-306-2301-308-2298.6-308z"/>
</g>
<path id="path0_fill" class="st1" d="M10.5,26.9c2.3,0,4.2-1.9,4.2-4.2v-4.2h-4.2c-2.3,0-4.2,1.9-4.2,4.2C6.3,25,8.2,26.9,10.5,26.9
	z"/>
<path id="path1_fill" class="st2" d="M6.3,14.4c0-2.3,1.9-4.2,4.2-4.2l4.2,0l0,8.3h-4.2C8.2,18.6,6.3,16.7,6.3,14.4z"/>
<path id="path1_fill_1_" class="st3" d="M6.3,6.1C6.3,3.8,8.2,2,10.5,2l4.2,0l0,8.3l-4.2,0C8.2,10.3,6.3,8.4,6.3,6.1z"/>
<path id="path2_fill" class="st4" d="M14.6,2l4.2,0c2.3,0,4.2,1.9,4.2,4.2s-1.9,4.2-4.2,4.2h-4.2L14.6,2z"/>
<path id="path3_fill" class="st5" d="M22.9,14.4c0,2.3-1.9,4.2-4.2,4.2c-2.3,0-4.2-1.9-4.2-4.2c0-2.3,1.9-4.2,4.2-4.2
	C21.1,10.3,22.9,12.2,22.9,14.4z"/>
</svg>
