<?xml version="1.0" encoding="utf-8"?>
<!-- Generator: Adobe Illustrator 26.1.0, SVG Export Plug-In . SVG Version: 6.00 Build 0)  -->
<svg version="1.1" id="Layer_1" xmlns="http://www.w3.org/2000/svg" xmlns:xlink="http://www.w3.org/1999/xlink" x="0px" y="0px"
	 viewBox="0 0 28.4 28.4" style="enable-background:new 0 0 28.4 28.4;" xml:space="preserve">
<style type="text/css">
	.st0{fill:#002DAB;}
</style>
<image style="overflow:visible;" width="256" height="256" xlink:href="font-creator-logo.png"  transform="matrix(0.1056 0 0 0.1056 0.9347 1.1773)">
</image>
<g id="Illustrator" transform="translate(2303 308)">
	<g id="_16">
		<path class="st0" d="M-2279.1-307.5c2.2,0,3.9,1.8,3.9,3.9v19.5c0,2.2-1.8,3.9-3.9,3.9h-19.5c-2.2,0-3.9-1.8-3.9-3.9v-19.5
			c0-2.2,1.8-3.9,3.9-3.9H-2279.1 M-2279.1-308h-19.5c-2.4,0-4.4,2-4.4,4.4v19.5c0,2.4,2,4.4,4.4,4.4h19.5c2.4,0,4.4-2,4.4-4.4
			v-19.5C-2274.7-306-2276.6-308-2279.1-308L-2279.1-308z"/>
	</g>
</g>
</svg>
