<?xml version="1.0" encoding="utf-8"?>
<!-- Generator: Adobe Illustrator 24.3.0, SVG Export Plug-In . SVG Version: 6.00 Build 0)  -->
<svg version="1.1" id="Layer_1" xmlns="http://www.w3.org/2000/svg" xmlns:xlink="http://www.w3.org/1999/xlink" x="0px" y="0px"
	 viewBox="0 0 28.35 28.35" style="enable-background:new 0 0 28.35 28.35;" xml:space="preserve">
<style type="text/css">
	.st0{fill:#460437;}
	.st1{fill:#CB74AF;}
	.st2{fill:#3FC7F4;}
	.st3{fill:#0A1F26;}
	.st4{fill-rule:evenodd;clip-rule:evenodd;fill:#DBF1FD;}
	.st5{fill:#301111;}
	.st6{fill:#F89A1C;}
	.st7{fill:#451022;}
	.st8{fill:#EE3A68;}
	.st9{fill:#2789CA;}
	.st10{fill:#1171B3;}
	.st11{fill:#0978B9;}
	.st12{fill:#3C99D4;}
	.st13{fill:#1D1C57;}
	.st14{fill:#9696CA;}
	.st15{fill:#0C131F;}
	.st16{fill-rule:evenodd;clip-rule:evenodd;fill:#FFFFFF;}
	.st17{fill:#FFFFFF;}
	.st18{fill:#E44F26;}
	.st19{fill:#010101;}
	.st20{fill:#F1662A;}
	.st21{fill:#EBEBEB;}
	.st22{fill:url(#SVGID_1_);}
	.st23{fill:url(#SVGID_2_);stroke:#FFFFFF;stroke-width:0.1863;}
	.st24{fill:#464342;}
	.st25{fill:#00749A;}
	.st26{fill:#8F183D;}
	.st27{fill:#DA81B5;}
	.st28{fill:#6D459B;}
	.st29{fill:#B88A2D;}
	.st30{fill:#FDB715;}
	.st31{fill:#809E3D;}
	.st32{fill:#ACD13D;}
	.st33{fill:#1784B5;}
	.st34{fill:#24ABE2;}
	.st35{fill:#FFFFFF;stroke:#A5A7AA;stroke-width:0.4607;stroke-miterlimit:1;}
	.st36{fill:none;}
	.st37{fill:#FFFFFF;stroke:#FFFFFF;stroke-width:0.4522;stroke-miterlimit:1;}
	.st38{clip-path:url(#path3830_2_);}
	.st39{fill:#F6DF19;}
	.st40{fill:#435BA9;}
	.st41{fill:#4767B0;}
</style>
<g>
	<polygon class="st18" points="25.07,5.56 14.17,5.56 14.17,5.56 3.28,5.56 5.32,26.03 14.17,28.35 14.17,28.35 14.17,28.35 
		14.17,28.35 14.17,28.35 23.02,26.03 	"/>
	<path class="st19" d="M7.95,1.27H6.69V0H5.3v3.82h1.39V2.55h1.26v1.27h1.39V0H7.95V1.27z M17.66,0h-0.12l-0.86,1.31L15.81,0h-0.1
		h-1.28h-0.07v3.82h1.35V1.91l0.96,1.38l0,0l0,0l0,0l0,0l0.98-1.42v1.95H19V0h-0.09H17.66z M9.95,1.29h1.21v2.54h1.39V1.29h1.21V0
		H9.95V1.29z M21.1,2.54V0h-1.39v3.82h0.35h1.04h1.94V2.54H21.1z"/>
	<polygon class="st20" points="14.17,7.22 14.17,26.61 14.17,26.61 21.34,24.73 23.09,7.22 	"/>
	<polygon class="st17" points="21.03,9.74 7.32,9.74 8.08,17.4 8.1,17.35 17.47,17.35 17.16,20.59 14.17,21.39 11.14,20.58 
		10.96,18.62 8.2,18.62 8.6,22.54 14.17,24 19.75,22.54 20.52,14.85 10.58,14.85 10.32,12.28 20.77,12.28 	"/>
	<g>
		<path class="st21" d="M14.17,9.74H7.32l0.77,7.67l0.02-0.05h6.07v-2.51h-3.6l-0.26-2.57h3.85V9.74z M10.96,18.62H8.2l0.39,3.92
			L14.17,24v-2.61l-3.03-0.81L10.96,18.62z"/>
	</g>
</g>
</svg>
