<?xml version="1.0" encoding="utf-8"?>
<!-- Generator: Adobe Illustrator 24.3.0, SVG Export Plug-In . SVG Version: 6.00 Build 0)  -->
<svg version="1.1" id="Layer_1" xmlns="http://www.w3.org/2000/svg" xmlns:xlink="http://www.w3.org/1999/xlink" x="0px" y="0px"
	 viewBox="0 0 28.35 28.35" style="enable-background:new 0 0 28.35 28.35;" xml:space="preserve">
<style type="text/css">
	.st0{fill:#460437;}
	.st1{fill:#CB74AF;}
	.st2{fill:#3FC7F4;}
	.st3{fill:#0A1F26;}
	.st4{fill-rule:evenodd;clip-rule:evenodd;fill:#DBF1FD;}
	.st5{fill:#301111;}
	.st6{fill:#F89A1C;}
	.st7{fill:#451022;}
	.st8{fill:#EE3A68;}
	.st9{fill:#2789CA;}
	.st10{fill:#1171B3;}
	.st11{fill:#0978B9;}
	.st12{fill:#3C99D4;}
	.st13{fill:#1D1C57;}
	.st14{fill:#9696CA;}
	.st15{fill:#0C131F;}
	.st16{fill-rule:evenodd;clip-rule:evenodd;fill:#FFFFFF;}
	.st17{fill:#FFFFFF;}
	.st18{fill:#E44F26;}
	.st19{fill:#010101;}
	.st20{fill:#F1662A;}
	.st21{fill:#EBEBEB;}
	.st22{fill:url(#SVGID_1_);}
	.st23{fill:url(#SVGID_2_);stroke:#FFFFFF;stroke-width:0.1863;}
	.st24{fill:#464342;}
	.st25{fill:#00749A;}
	.st26{fill:#8F183D;}
	.st27{fill:#DA81B5;}
	.st28{fill:#6D459B;}
	.st29{fill:#B88A2D;}
	.st30{fill:#FDB715;}
	.st31{fill:#809E3D;}
	.st32{fill:#ACD13D;}
	.st33{fill:#1784B5;}
	.st34{fill:#24ABE2;}
	.st35{fill:#FFFFFF;stroke:#A5A7AA;stroke-width:0.4607;stroke-miterlimit:1;}
	.st36{fill:none;}
	.st37{fill:#FFFFFF;stroke:#FFFFFF;stroke-width:0.4522;stroke-miterlimit:1;}
	.st38{clip-path:url(#path3830_2_);}
	.st39{fill:#F6DF19;}
	.st40{fill:#435BA9;}
	.st41{fill:#4767B0;}
</style>
<g id="Illustrator" transform="translate(2303 308)">
	<path id="_16" class="st5" d="M-2298.57-308h19.49c2.44,0,4.43,1.98,4.43,4.43v19.49c0,2.44-1.98,4.43-4.43,4.43h-19.49
		c-2.44,0-4.43-1.98-4.43-4.43v-19.49C-2303-306.02-2301.02-308-2298.57-308z"/>
	<path id="_30" class="st6" d="M-2289.18-290.74h-4.33l-0.88,2.89c-0.02,0.1-0.12,0.18-0.23,0.17h-2.19c-0.12,0-0.17-0.07-0.13-0.2
		l3.74-10.79c0.04-0.11,0.07-0.24,0.11-0.39c0.05-0.21,0.08-0.43,0.07-0.64c-0.01-0.06,0.03-0.12,0.1-0.13c0.01,0,0.02,0,0.03,0
		h2.98c0.09,0,0.14,0.03,0.15,0.1l4.26,11.87c0.04,0.12,0,0.19-0.11,0.19h-2.43c-0.08,0.01-0.16-0.05-0.19-0.13L-2289.18-290.74z
		 M-2292.86-292.74h3.17c-0.07-0.25-0.33-0.83-0.43-1.14s-0.24-0.56-0.35-0.92c-0.11-0.36-0.23-0.71-0.33-1.07
		c-0.11-0.36-0.22-0.7-0.31-1.03c-0.1-0.33-0.18-0.63-0.26-0.91h-0.02c-0.11,0.5-0.24,1-0.39,1.5c-0.18,0.56-0.35,1.13-0.53,1.72
		C-2292.49-293.99-2292.68-293.24-2292.86-292.74L-2292.86-292.74z"/>
	<path id="_31" class="st6" d="M-2282.96-297.88c-0.39,0.02-0.76-0.14-1.03-0.41c-0.27-0.29-0.41-0.67-0.39-1.07
		c-0.01-0.39,0.14-0.77,0.42-1.04c0.28-0.27,0.65-0.41,1.04-0.4c0.39-0.02,0.78,0.12,1.06,0.4c0.26,0.28,0.4,0.66,0.39,1.04
		c0.02,0.4-0.13,0.78-0.4,1.07C-2282.17-298.01-2282.56-297.86-2282.96-297.88z M-2284.17-287.87v-8.56c0-0.11,0.05-0.17,0.15-0.17
		h2.13c0.1,0,0.15,0.06,0.15,0.17v8.56c0,0.12-0.05,0.19-0.15,0.19h-2.11C-2284.12-287.69-2284.17-287.75-2284.17-287.87z"/>
</g>
</svg>
