<?xml version="1.0" encoding="utf-8"?>
<!-- Generator: Adobe Illustrator 24.3.0, SVG Export Plug-In . SVG Version: 6.00 Build 0)  -->
<svg version="1.1" id="Layer_1" xmlns="http://www.w3.org/2000/svg" xmlns:xlink="http://www.w3.org/1999/xlink" x="0px" y="0px"
	 viewBox="0 0 28.35 28.35" style="enable-background:new 0 0 28.35 28.35;" xml:space="preserve">
<style type="text/css">
	.st0{fill:#460437;}
	.st1{fill:#CB74AF;}
	.st2{fill:#3FC7F4;}
	.st3{fill:#0A1F26;}
	.st4{fill-rule:evenodd;clip-rule:evenodd;fill:#DBF1FD;}
	.st5{fill:#301111;}
	.st6{fill:#F89A1C;}
	.st7{fill:#451022;}
	.st8{fill:#EE3A68;}
	.st9{fill:#2789CA;}
	.st10{fill:#1171B3;}
	.st11{fill:#0978B9;}
	.st12{fill:#3C99D4;}
	.st13{fill:#1D1C57;}
	.st14{fill:#9696CA;}
	.st15{fill:#0C131F;}
	.st16{fill-rule:evenodd;clip-rule:evenodd;fill:#FFFFFF;}
	.st17{fill:#FFFFFF;}
	.st18{fill:#E44F26;}
	.st19{fill:#010101;}
	.st20{fill:#F1662A;}
	.st21{fill:#EBEBEB;}
	.st22{fill:url(#SVGID_1_);}
	.st23{fill:url(#SVGID_2_);stroke:#FFFFFF;stroke-width:0.1863;}
	.st24{fill:#464342;}
	.st25{fill:#00749A;}
	.st26{fill:#8F183D;}
	.st27{fill:#DA81B5;}
	.st28{fill:#6D459B;}
	.st29{fill:#B88A2D;}
	.st30{fill:#FDB715;}
	.st31{fill:#809E3D;}
	.st32{fill:#ACD13D;}
	.st33{fill:#1784B5;}
	.st34{fill:#24ABE2;}
	.st35{fill:#FFFFFF;stroke:#A5A7AA;stroke-width:0.4607;stroke-miterlimit:1;}
	.st36{fill:none;}
	.st37{fill:#FFFFFF;stroke:#FFFFFF;stroke-width:0.4522;stroke-miterlimit:1;}
	.st38{clip-path:url(#path3830_2_);}
	.st39{fill:#F6DF19;}
	.st40{fill:#435BA9;}
	.st41{fill:#4767B0;}
</style>
<g id="InDesign" transform="translate(2511 308)">
	<path id="_18" class="st7" d="M-2506.57-308h19.49c2.44,0,4.43,1.98,4.43,4.43v19.49c0,2.44-1.98,4.43-4.43,4.43h-19.49
		c-2.44,0-4.43-1.98-4.43-4.43v-19.49C-2511-306.02-2509.02-308-2506.57-308z"/>
	<path id="_34" class="st8" d="M-2500.93-299.62v11.74c0,0.12-0.06,0.19-0.17,0.19h-2.14c-0.1,0-0.15-0.06-0.15-0.19v-11.74
		c0-0.1,0.06-0.15,0.17-0.15h2.14c0.07-0.01,0.14,0.04,0.15,0.11C-2500.93-299.64-2500.93-299.63-2500.93-299.62L-2500.93-299.62z"
		/>
	<path id="_35" class="st8" d="M-2493.98-287.44c-0.86,0.01-1.72-0.16-2.5-0.52c-0.73-0.34-1.34-0.89-1.75-1.58
		c-0.45-0.81-0.67-1.72-0.64-2.65c-0.01-0.86,0.21-1.71,0.64-2.45c0.44-0.76,1.08-1.38,1.85-1.8c0.91-0.47,1.92-0.7,2.94-0.67
		c0.06,0,0.14,0.01,0.24,0.01c0.1,0.01,0.32,0.02,0.45,0.03v-3.54c0-0.09,0.04-0.13,0.11-0.13h2.17c0.06-0.01,0.1,0.03,0.11,0.09
		c0,0.01,0,0.02,0,0.03v10.92c0,0.21,0.01,0.44,0.03,0.69s0.03,0.48,0.05,0.67c0.01,0.08-0.04,0.15-0.11,0.19
		c-0.58,0.26-1.19,0.44-1.8,0.56C-2492.77-287.49-2493.37-287.44-2493.98-287.44z M-2492.73-289.76v-5.11
		c-0.14-0.03-0.27-0.05-0.41-0.06c-0.13-0.01-0.26-0.02-0.39-0.02c-0.45-0.01-0.9,0.1-1.31,0.3c-0.9,0.43-1.43,1.35-1.37,2.34
		c-0.01,0.41,0.06,0.82,0.2,1.2c0.11,0.31,0.29,0.59,0.52,0.82c0.22,0.22,0.49,0.37,0.79,0.47c0.31,0.1,0.63,0.15,0.96,0.15
		c0.18,0,0.33-0.01,0.49-0.02C-2493.07-289.69-2492.9-289.72-2492.73-289.76L-2492.73-289.76z"/>
</g>
</svg>
