<?xml version="1.0" encoding="utf-8"?>
<!-- Generator: Adobe Illustrator 24.3.0, SVG Export Plug-In . SVG Version: 6.00 Build 0)  -->
<svg version="1.1" id="Layer_1" xmlns="http://www.w3.org/2000/svg" xmlns:xlink="http://www.w3.org/1999/xlink" x="0px" y="0px"
	 viewBox="0 0 28.35 28.35" style="enable-background:new 0 0 28.35 28.35;" xml:space="preserve">
<style type="text/css">
	.st0{fill:#460437;}
	.st1{fill:#CB74AF;}
	.st2{fill:#3FC7F4;}
	.st3{fill:#0A1F26;}
	.st4{fill-rule:evenodd;clip-rule:evenodd;fill:#DBF1FD;}
	.st5{fill:#301111;}
	.st6{fill:#F89A1C;}
	.st7{fill:#451022;}
	.st8{fill:#EE3A68;}
	.st9{fill:#2789CA;}
	.st10{fill:#1171B3;}
	.st11{fill:#0978B9;}
	.st12{fill:#3C99D4;}
	.st13{fill:#1D1C57;}
	.st14{fill:#9696CA;}
	.st15{fill:#0C131F;}
	.st16{fill-rule:evenodd;clip-rule:evenodd;fill:#FFFFFF;}
	.st17{fill:#FFFFFF;}
	.st18{fill:#E44F26;}
	.st19{fill:#010101;}
	.st20{fill:#F1662A;}
	.st21{fill:#EBEBEB;}
	.st22{fill:url(#SVGID_1_);}
	.st23{fill:url(#SVGID_2_);stroke:#FFFFFF;stroke-width:0.1863;}
	.st24{fill:#464342;}
	.st25{fill:#00749A;}
	.st26{fill:#8F183D;}
	.st27{fill:#DA81B5;}
	.st28{fill:#6D459B;}
	.st29{fill:#B88A2D;}
	.st30{fill:#FDB715;}
	.st31{fill:#809E3D;}
	.st32{fill:#ACD13D;}
	.st33{fill:#1784B5;}
	.st34{fill:#24ABE2;}
	.st35{fill:#FFFFFF;stroke:#A5A7AA;stroke-width:0.4607;stroke-miterlimit:1;}
	.st36{fill:none;}
	.st37{fill:#FFFFFF;stroke:#FFFFFF;stroke-width:0.4522;stroke-miterlimit:1;}
	.st38{clip-path:url(#path3830_2_);}
	.st39{fill:#F6DF19;}
	.st40{fill:#435BA9;}
	.st41{fill:#4767B0;}
</style>
<g>
	<rect class="st39" width="28.35" height="28.35"/>
	<path class="st19" d="M19.04,22.15c0.57,0.93,1.31,1.62,2.63,1.62c1.1,0,1.81-0.55,1.81-1.31c0-0.91-0.72-1.24-1.94-1.77
		l-0.67-0.29c-1.92-0.82-3.2-1.84-3.2-4.01c0-2,1.52-3.52,3.9-3.52c1.69,0,2.91,0.59,3.79,2.13l-2.07,1.33
		c-0.46-0.82-0.95-1.14-1.71-1.14c-0.78,0-1.27,0.49-1.27,1.14c0,0.8,0.49,1.12,1.64,1.62l0.67,0.29c2.26,0.97,3.54,1.96,3.54,4.18
		c0,2.4-1.88,3.71-4.41,3.71c-2.47,0-4.07-1.18-4.85-2.72L19.04,22.15z M9.63,22.38c0.42,0.74,0.8,1.37,1.71,1.37
		c0.88,0,1.43-0.34,1.43-1.67v-9.06h2.66v9.09c0,2.76-1.62,4.01-3.98,4.01c-2.13,0-3.37-1.1-4-2.43L9.63,22.38z"/>
</g>
</svg>
