<?xml version="1.0" encoding="utf-8"?>
<!-- Generator: Adobe Illustrator 26.1.0, SVG Export Plug-In . SVG Version: 6.00 Build 0)  -->
<svg version="1.1" id="Layer_1" xmlns="http://www.w3.org/2000/svg" xmlns:xlink="http://www.w3.org/1999/xlink" x="0px" y="0px"
	 viewBox="0 0 28.4 28.4" style="enable-background:new 0 0 28.4 28.4;" xml:space="preserve">
<style type="text/css">
	.st0{fill:#FFFFFF;}
	.st1{fill:#D24625;}
	.st2{fill:url(#path439_00000081621777031892075360000005596802133156950456_);}
</style>
<g id="layer1" transform="translate(71.436985,24.831782)">
	<g id="shape307-43" transform="matrix(0.70582253,0,0,0.70582253,1.0185879,-406.66344)">
		<v:userDefs>
			<v:ud></v:ud>
		</v:userDefs>
		<rect id="rect165" x="-85.7" y="546.5" class="st0" width="22.3" height="27.8"/>
	</g>
	<g id="shape48-45" transform="matrix(0.70582253,0,0,0.70582253,-8.3166021,-403.76462)">
		<path id="path170" class="st1" d="M-73.1,541.5c-0.8,0-1.5,0.7-1.5,1.6v26.3c0,0.9,0.7,1.6,1.5,1.6h21.8c0.8,0,1.5-0.7,1.5-1.6
			v-26.3c0-0.9-0.7-1.6-1.5-1.6H-73.1z M-73.4,542.9H-51v26.6l-22.4,0L-73.4,542.9L-73.4,542.9z"/>
	</g>
	<g id="shape54-47" transform="matrix(0.70582253,0,0,0.70582253,5.8937379,-439.18349)">
		<v:userDefs>
			<v:ud></v:ud>
		</v:userDefs>
		<rect id="rect175" x="-91.5" y="610.7" class="st1" width="15.7" height="1.8"/>
	</g>
	<g id="shape55-49" transform="matrix(0.70582253,0,0,0.70582253,5.8937379,-422.36588)">
		<v:userDefs>
			<v:ud></v:ud>
		</v:userDefs>
		<rect id="rect180" x="-91.5" y="591" class="st1" width="15.7" height="1.8"/>
	</g>
	<g id="group60-51" transform="matrix(0.70582253,0,0,0.70582253,17.622378,-455.71458)">
		<g id="shape58-52" transform="translate(4.64154,-4.08684)">
			<v:userDefs>
				<v:ud></v:ud>
				<v:ud></v:ud>
				<v:ud></v:ud>
				<v:ud></v:ud>
				<v:ud></v:ud>
				<v:ud></v:ud>
				<v:ud></v:ud>
				<v:ud></v:ud>
			</v:userDefs>
			<path id="path187" class="st1" d="M-104.1,629.4h5.3c0-3.1-2.4-5.7-5.3-5.7c0,0,0,0,0,0V629.4z"/>
		</g>
		<g id="shape59-54">
			<v:userDefs>
				<v:ud></v:ud>
				<v:ud></v:ud>
				<v:ud></v:ud>
				<v:ud></v:ud>
				<v:ud></v:ud>
				<v:ud></v:ud>
				<v:ud></v:ud>
				<v:ud></v:ud>
			</v:userDefs>
			<path id="path192" class="st1" d="M-100.2,626.1v-5.7c-2.9,0-5.3,2.5-5.3,5.7c0,3.1,2.4,5.7,5.3,5.7c2.9,0,5.3-2.5,5.3-5.7
				H-100.2z"/>
		</g>
	</g>
	
		<linearGradient id="path439_00000092416053349759171610000001929721793810829992_" gradientUnits="userSpaceOnUse" x1="-343.1963" y1="-335.1919" x2="-343.1963" y2="-327.5951" gradientTransform="matrix(0 -2.0008 -2.0008 0 -726.6017 -697.4863)">
		<stop  offset="0" style="stop-color:#D04223"/>
		<stop  offset="1" style="stop-color:#D44A27"/>
	</linearGradient>
	<path id="path439" style="fill:url(#path439_00000092416053349759171610000001929721793810829992_);" d="M-56,2.8v-27.3l-15.2,2.7
		V0.1L-56,2.8z"/>
	<g id="shape277-234" transform="matrix(0.70582253,0,0,0.70582253,-40.292597,-434.48174)">
		<path id="path595" class="st0" d="M-36.6,606.8v-12.9l4.1-0.2c1.3,0,2,0.4,2.6,1.4c0.5,0.8,0.7,2,0.6,3.1
			c-0.2,2.2-1.5,4.1-3.4,4.2h-1.7v-2.4h1.2c0.8,0,1.5-1,1.4-2c0-1.2-0.6-1.8-1.4-1.9l-1.2,0l0,10.9L-36.6,606.8z"/>
	</g>
</g>
</svg>
