<?xml version="1.0" encoding="utf-8"?>
<!-- Generator: Adobe Illustrator 24.3.0, SVG Export Plug-In . SVG Version: 6.00 Build 0)  -->
<svg version="1.1" id="Layer_1" xmlns="http://www.w3.org/2000/svg" xmlns:xlink="http://www.w3.org/1999/xlink" x="0px" y="0px"
	 viewBox="0 0 28.35 28.35" style="enable-background:new 0 0 28.35 28.35;" xml:space="preserve">
<style type="text/css">
	.st0{fill:#460437;}
	.st1{fill:#CB74AF;}
	.st2{fill:#3FC7F4;}
	.st3{fill:#0A1F26;}
	.st4{fill-rule:evenodd;clip-rule:evenodd;fill:#DBF1FD;}
	.st5{fill:#301111;}
	.st6{fill:#F89A1C;}
	.st7{fill:#451022;}
	.st8{fill:#EE3A68;}
	.st9{fill:#2789CA;}
	.st10{fill:#1171B3;}
	.st11{fill:#0978B9;}
	.st12{fill:#3C99D4;}
	.st13{fill:#1D1C57;}
	.st14{fill:#9696CA;}
	.st15{fill:#0C131F;}
	.st16{fill-rule:evenodd;clip-rule:evenodd;fill:#FFFFFF;}
	.st17{fill:#FFFFFF;}
	.st18{fill:#E44F26;}
	.st19{fill:#010101;}
	.st20{fill:#F1662A;}
	.st21{fill:#EBEBEB;}
	.st22{fill:url(#SVGID_1_);}
	.st23{fill:url(#SVGID_2_);stroke:#FFFFFF;stroke-width:0.1863;}
	.st24{fill:#464342;}
	.st25{fill:#00749A;}
	.st26{fill:#8F183D;}
	.st27{fill:#DA81B5;}
	.st28{fill:#6D459B;}
	.st29{fill:#B88A2D;}
	.st30{fill:#FDB715;}
	.st31{fill:#809E3D;}
	.st32{fill:#ACD13D;}
	.st33{fill:#1784B5;}
	.st34{fill:#24ABE2;}
	.st35{fill:#FFFFFF;stroke:#A5A7AA;stroke-width:0.4607;stroke-miterlimit:1;}
	.st36{fill:none;}
	.st37{fill:#FFFFFF;stroke:#FFFFFF;stroke-width:0.4522;stroke-miterlimit:1;}
	.st38{clip-path:url(#path3830_2_);}
	.st39{fill:#F6DF19;}
	.st40{fill:#435BA9;}
	.st41{fill:#4767B0;}
</style>
<g id="g8" transform="matrix(2.0666667 0 0 2.0666667 2 2)">
	<path id="path2" class="st2" d="M10.32,12.58H1.46c-1.34,0-2.43-1.08-2.43-2.43V1.63c0-1.34,1.09-2.43,2.43-2.43h8.86
		c1.34,0,2.43,1.09,2.43,2.43v8.52C12.75,11.49,11.67,12.58,10.32,12.58z"/>
	<path id="path4" class="st3" d="M10.11,12.01H1.68c-1.15,0-2.08-0.93-2.08-2.08V1.85c0-1.15,0.93-2.08,2.08-2.08h8.42
		c1.15,0,2.08,0.93,2.08,2.08v8.07C12.18,11.07,11.25,12.01,10.11,12.01L10.11,12.01z"/>
	<path id="path6" class="st4" d="M2.41,2.55c0-0.03,0.01-0.06,0.06-0.06c0.36-0.02,0.87-0.03,1.43-0.03c1.54,0,2.22,0.84,2.22,1.93
		c0,1.42-1.04,2.02-2.3,2.02c-0.21,0-0.28-0.01-0.44-0.01v2.17c0,0.05-0.02,0.06-0.06,0.06H2.47c-0.05,0-0.06-0.02-0.06-0.06V2.55z
		 M3.38,5.51C3.5,5.52,3.6,5.52,3.83,5.52c0.65,0,1.28-0.23,1.28-1.12c0-0.7-0.45-1.07-1.2-1.07c-0.22,0-0.44,0.01-0.53,0.02V5.51z
		 M8.36,4.85c-0.44,0-0.59,0.22-0.59,0.41c0,0.2,0.1,0.34,0.69,0.65c0.87,0.43,1.15,0.83,1.15,1.43c0,0.89-0.68,1.37-1.6,1.37
		c-0.49,0-0.92-0.1-1.16-0.24C6.82,8.45,6.81,8.42,6.81,8.38V7.56c0-0.06,0.03-0.07,0.06-0.05c0.35,0.23,0.78,0.33,1.15,0.33
		c0.44,0,0.62-0.18,0.62-0.44c0-0.2-0.12-0.38-0.69-0.67C7.15,6.35,6.82,5.96,6.82,5.32c0-0.72,0.56-1.32,1.54-1.32
		c0.48,0,0.83,0.07,1.01,0.15c0.05,0.03,0.06,0.07,0.06,0.11v0.77c0,0.05-0.03,0.07-0.08,0.06C9.11,4.94,8.72,4.85,8.36,4.85z"/>
</g>
</svg>
