<?xml version="1.0" encoding="utf-8"?>
<!-- Generator: Adobe Illustrator 24.3.0, SVG Export Plug-In . SVG Version: 6.00 Build 0)  -->
<svg version="1.1" id="Layer_1" xmlns="http://www.w3.org/2000/svg" xmlns:xlink="http://www.w3.org/1999/xlink" x="0px" y="0px"
	 viewBox="0 0 28.35 28.35" style="enable-background:new 0 0 28.35 28.35;" xml:space="preserve">
<style type="text/css">
	.st0{fill:#460437;}
	.st1{fill:#CB74AF;}
	.st2{fill:#3FC7F4;}
	.st3{fill:#0A1F26;}
	.st4{fill-rule:evenodd;clip-rule:evenodd;fill:#DBF1FD;}
	.st5{fill:#301111;}
	.st6{fill:#F89A1C;}
	.st7{fill:#451022;}
	.st8{fill:#EE3A68;}
	.st9{fill:#2789CA;}
	.st10{fill:#1171B3;}
	.st11{fill:#0978B9;}
	.st12{fill:#3C99D4;}
	.st13{fill:#1D1C57;}
	.st14{fill:#9696CA;}
	.st15{fill:#0C131F;}
	.st16{fill-rule:evenodd;clip-rule:evenodd;fill:#FFFFFF;}
	.st17{fill:#FFFFFF;}
	.st18{fill:#E44F26;}
	.st19{fill:#010101;}
	.st20{fill:#F1662A;}
	.st21{fill:#EBEBEB;}
	.st22{fill:url(#SVGID_1_);}
	.st23{fill:url(#SVGID_2_);stroke:#FFFFFF;stroke-width:0.1863;}
	.st24{fill:#464342;}
	.st25{fill:#00749A;}
	.st26{fill:#8F183D;}
	.st27{fill:#DA81B5;}
	.st28{fill:#6D459B;}
	.st29{fill:#B88A2D;}
	.st30{fill:#FDB715;}
	.st31{fill:#809E3D;}
	.st32{fill:#ACD13D;}
	.st33{fill:#1784B5;}
	.st34{fill:#24ABE2;}
	.st35{fill:#FFFFFF;stroke:#A5A7AA;stroke-width:0.4607;stroke-miterlimit:1;}
	.st36{fill:none;}
	.st37{fill:#FFFFFF;stroke:#FFFFFF;stroke-width:0.4522;stroke-miterlimit:1;}
	.st38{clip-path:url(#path3830_2_);}
	.st39{fill:#F6DF19;}
	.st40{fill:#435BA9;}
	.st41{fill:#4767B0;}
</style>
<g id="Premiere" transform="translate(4175 308)">
	<path id="_26" class="st13" d="M-4170.57-308h19.49c2.44,0,4.43,1.98,4.43,4.43v19.49c0,2.44-1.98,4.43-4.43,4.43h-19.49
		c-2.44,0-4.43-1.98-4.43-4.43v-19.49C-4175-306.02-4173.02-308-4170.57-308z"/>
	<path id="_52" class="st14" d="M-4168.32-287.94v-11.95c0-0.1,0.05-0.15,0.1-0.15h2.63c0.36,0,0.81,0.1,1.16,0.1
		c0.8-0.01,1.61,0.11,2.38,0.36c0.6,0.19,1.13,0.52,1.57,0.96c0.37,0.37,0.66,0.82,0.86,1.32c0.16,0.49,0.24,1,0.26,1.52
		c0.04,0.88-0.21,1.75-0.71,2.48c-0.45,0.66-1.11,1.16-1.87,1.42c-0.84,0.3-1.73,0.46-2.63,0.45h-0.56c-0.1,0-0.56-0.1-0.81-0.1v3.7
		c0.01,0.07-0.04,0.14-0.11,0.15c-0.01,0-0.02,0-0.04,0h-2.13C-4168.26-287.78-4168.32-287.83-4168.32-287.94z M-4165.88-297.81v3.9
		c0.15,0,0.61,0.1,0.76,0.1h0.61c0.45,0.01,0.89-0.06,1.32-0.2c0.37-0.1,0.71-0.31,0.96-0.61c0.27-0.35,0.4-0.78,0.36-1.21
		c-0.01-0.35-0.09-0.7-0.25-1.01c-0.19-0.3-0.48-0.53-0.81-0.66c-0.44-0.16-0.9-0.24-1.37-0.26h-0.81
		C-4165.38-297.74-4165.63-297.76-4165.88-297.81z"/>
	<path id="_53" class="st14" d="M-4157.74-297h2.02c0.11,0.02,0.21,0.1,0.25,0.2c0.05,0.1,0.1,0.15,0.1,0.26
		c0.04,0.11,0.06,0.23,0.05,0.35v0.4c0.35-0.42,0.78-0.76,1.26-1.01c0.48-0.31,1.05-0.45,1.62-0.4c0.1,0,0.15,0.05,0.15,0.1v2.33
		c0,0.1-0.05,0.15-0.2,0.15c-0.37-0.05-0.75-0.01-1.11,0.1c-0.33,0.05-0.66,0.15-0.96,0.31c-0.28,0.1-0.54,0.26-0.76,0.45v5.92
		c0.01,0.07-0.04,0.14-0.11,0.15c-0.01,0-0.02,0-0.04,0h-2.13c-0.1,0-0.15-0.05-0.2-0.15v-7.34c0.01-0.31-0.01-0.61-0.05-0.91
		c0-0.26-0.05-0.5-0.05-0.76c0-0.05,0-0.05,0.05-0.1C-4157.84-297-4157.79-297-4157.74-297z"/>
</g>
</svg>
