<?xml version="1.0" encoding="utf-8"?>
<!-- Generator: Adobe Illustrator 24.3.0, SVG Export Plug-In . SVG Version: 6.00 Build 0)  -->
<svg version="1.1" id="Layer_1" xmlns="http://www.w3.org/2000/svg" xmlns:xlink="http://www.w3.org/1999/xlink" x="0px" y="0px"
	 viewBox="0 0 28.35 28.35" style="enable-background:new 0 0 28.35 28.35;" xml:space="preserve">
<style type="text/css">
	.st0{fill:#460437;}
	.st1{fill:#CB74AF;}
	.st2{fill:#3FC7F4;}
	.st3{fill:#0A1F26;}
	.st4{fill-rule:evenodd;clip-rule:evenodd;fill:#DBF1FD;}
	.st5{fill:#301111;}
	.st6{fill:#F89A1C;}
	.st7{fill:#451022;}
	.st8{fill:#EE3A68;}
	.st9{fill:#2789CA;}
	.st10{fill:#1171B3;}
	.st11{fill:#0978B9;}
	.st12{fill:#3C99D4;}
	.st13{fill:#1D1C57;}
	.st14{fill:#9696CA;}
	.st15{fill:#0C131F;}
	.st16{fill-rule:evenodd;clip-rule:evenodd;fill:#FFFFFF;}
	.st17{fill:#FFFFFF;}
	.st18{fill:#E44F26;}
	.st19{fill:#010101;}
	.st20{fill:#F1662A;}
	.st21{fill:#EBEBEB;}
	.st22{fill:url(#SVGID_1_);}
	.st23{fill:url(#SVGID_2_);stroke:#FFFFFF;stroke-width:0.1863;}
	.st24{fill:#464342;}
	.st25{fill:#00749A;}
	.st26{fill:#8F183D;}
	.st27{fill:#DA81B5;}
	.st28{fill:#6D459B;}
	.st29{fill:#B88A2D;}
	.st30{fill:#FDB715;}
	.st31{fill:#809E3D;}
	.st32{fill:#ACD13D;}
	.st33{fill:#1784B5;}
	.st34{fill:#24ABE2;}
	.st35{fill:#FFFFFF;stroke:#A5A7AA;stroke-width:0.4607;stroke-miterlimit:1;}
	.st36{fill:none;}
	.st37{fill:#FFFFFF;stroke:#FFFFFF;stroke-width:0.4522;stroke-miterlimit:1;}
	.st38{clip-path:url(#path3830_2_);}
	.st39{fill:#F6DF19;}
	.st40{fill:#435BA9;}
	.st41{fill:#4767B0;}
</style>
<g>
	<path class="st9" d="M0.27,9.93c0,0-0.69-0.5,0.14-1.16l1.93-1.73c0,0,0.55-0.58,1.14-0.07l17.81,13.49v6.47
		c0,0-0.01,1.02-1.31,0.9L0.27,9.93z"/>
	<path class="st10" d="M4.86,14.1l-4.59,4.17c0,0-0.47,0.35,0,0.98l2.13,1.94c0,0,0.51,0.54,1.25-0.07l4.87-3.69L4.86,14.1z"/>
	<path class="st11" d="M12.92,14.13l8.42-6.43l-0.05-6.43c0,0-0.36-1.4-1.56-0.67L8.52,10.8L12.92,14.13z"/>
	<path class="st12" d="M19.98,27.83c0.49,0.5,1.08,0.34,1.08,0.34l6.56-3.23c0.84-0.57,0.72-1.28,0.72-1.28V4.34
		c0-0.85-0.87-1.14-0.87-1.14l-5.69-2.74c-1.24-0.77-2.06,0.14-2.06,0.14s1.05-0.75,1.56,0.67V26.8c0,0.18-0.04,0.35-0.11,0.5
		c-0.15,0.3-0.47,0.58-1.25,0.47L19.98,27.83z"/>
</g>
</svg>
