<?xml version="1.0" encoding="utf-8"?>
<!-- Generator: Adobe Illustrator 24.3.0, SVG Export Plug-In . SVG Version: 6.00 Build 0)  -->
<svg version="1.1" id="Layer_1" xmlns="http://www.w3.org/2000/svg" xmlns:xlink="http://www.w3.org/1999/xlink" x="0px" y="0px"
	 viewBox="0 0 28.35 28.35" style="enable-background:new 0 0 28.35 28.35;" xml:space="preserve">
<style type="text/css">
	.st0{fill:#460437;}
	.st1{fill:#CB74AF;}
	.st2{fill:#3FC7F4;}
	.st3{fill:#0A1F26;}
	.st4{fill-rule:evenodd;clip-rule:evenodd;fill:#DBF1FD;}
	.st5{fill:#301111;}
	.st6{fill:#F89A1C;}
	.st7{fill:#451022;}
	.st8{fill:#EE3A68;}
	.st9{fill:#2789CA;}
	.st10{fill:#1171B3;}
	.st11{fill:#0978B9;}
	.st12{fill:#3C99D4;}
	.st13{fill:#1D1C57;}
	.st14{fill:#9696CA;}
	.st15{fill:#0C131F;}
	.st16{fill-rule:evenodd;clip-rule:evenodd;fill:#FFFFFF;}
	.st17{fill:#FFFFFF;}
	.st18{fill:#E44F26;}
	.st19{fill:#010101;}
	.st20{fill:#F1662A;}
	.st21{fill:#EBEBEB;}
	.st22{fill:url(#SVGID_1_);}
	.st23{fill:url(#SVGID_2_);stroke:#FFFFFF;stroke-width:0.1863;}
	.st24{fill:#464342;}
	.st25{fill:#00749A;}
	.st26{fill:#8F183D;}
	.st27{fill:#DA81B5;}
	.st28{fill:#6D459B;}
	.st29{fill:#B88A2D;}
	.st30{fill:#FDB715;}
	.st31{fill:#809E3D;}
	.st32{fill:#ACD13D;}
	.st33{fill:#1784B5;}
	.st34{fill:#24ABE2;}
	.st35{fill:#FFFFFF;stroke:#A5A7AA;stroke-width:0.4607;stroke-miterlimit:1;}
	.st36{fill:none;}
	.st37{fill:#FFFFFF;stroke:#FFFFFF;stroke-width:0.4522;stroke-miterlimit:1;}
	.st38{clip-path:url(#path3830_2_);}
	.st39{fill:#F6DF19;}
	.st40{fill:#435BA9;}
	.st41{fill:#4767B0;}
</style>
<g>
	<path class="st24" d="M4.38,11.6c0,3.94,2.24,7.35,5.49,8.96L5.23,7.55C4.69,8.79,4.38,10.16,4.38,11.6z M20.7,11.1
		c0-1.23-0.43-2.08-0.8-2.75c-0.49-0.82-0.96-1.51-0.96-2.33c0-0.92,0.68-1.77,1.64-1.77c0.04,0,0.08,0.01,0.13,0.01
		c-1.73-1.62-4.04-2.61-6.58-2.61c-3.4,0-6.4,1.78-8.14,4.49c0.23,0.01,0.44,0.01,0.63,0.01c1.02,0,2.6-0.13,2.6-0.13
		c0.52-0.03,0.59,0.76,0.06,0.82c0,0-0.53,0.06-1.11,0.09l3.55,10.78l2.13-6.53l-1.52-4.25c-0.52-0.03-1.02-0.09-1.02-0.09
		c-0.52-0.03-0.46-0.85,0.06-0.82c0,0,1.61,0.13,2.56,0.13c1.02,0,2.6-0.13,2.6-0.13c0.52-0.03,0.59,0.76,0.06,0.82
		c0,0-0.53,0.06-1.11,0.09l3.52,10.7l0.97-3.32C20.45,13.03,20.7,11.95,20.7,11.1z M14.29,12.47l-2.92,8.68
		c0.87,0.26,1.8,0.41,2.75,0.41c1.13,0,2.22-0.2,3.23-0.56c-0.03-0.04-0.05-0.09-0.07-0.14L14.29,12.47z M22.67,6.83
		c0.04,0.32,0.07,0.66,0.07,1.02c0,1.01-0.19,2.15-0.74,3.57l-2.97,8.79c2.9-1.73,4.84-4.93,4.84-8.6
		C23.86,9.87,23.43,8.25,22.67,6.83z"/>
	<g>
		<path class="st24" d="M2.77,11.6c0,6.4,5.09,11.6,11.35,11.6c6.26,0,11.35-5.21,11.35-11.6c0-6.4-5.09-11.6-11.35-11.6
			C7.86,0,2.77,5.21,2.77,11.6z M3.29,11.6c0-6.11,4.86-11.07,10.83-11.07c5.97,0,10.83,4.97,10.83,11.07
			c0,6.11-4.86,11.07-10.83,11.07C8.15,22.68,3.29,17.71,3.29,11.6z"/>
	</g>
	<path class="st25" d="M12.76,25.43H11.3v0.16c0.46,0,0.53,0.1,0.53,0.69v1.07c0,0.59-0.07,0.7-0.53,0.7
		c-0.35-0.05-0.59-0.24-0.91-0.61l-0.38-0.42c0.51-0.09,0.78-0.42,0.78-0.78c0-0.46-0.38-0.81-1.1-0.81H8.25v0.16
		c0.46,0,0.53,0.1,0.53,0.69v1.07c0,0.59-0.07,0.7-0.53,0.7v0.16h1.62v-0.16c-0.46,0-0.53-0.11-0.53-0.7v-0.3h0.14l0.91,1.16h2.37
		c1.17,0,1.67-0.63,1.67-1.39C14.43,26.05,13.93,25.43,12.76,25.43z M9.34,26.79v-1.11h0.33c0.37,0,0.53,0.26,0.53,0.56
		c0,0.29-0.16,0.55-0.53,0.55H9.34z M12.79,27.95h-0.06c-0.29,0-0.33-0.07-0.33-0.46v-1.81c0,0,0.36,0,0.39,0c0.85,0,1,0.63,1,1.13
		C13.79,27.31,13.63,27.95,12.79,27.95z"/>
	<path class="st25" d="M3.7,27.1l0.56-1.7c0.16-0.49,0.09-0.63-0.43-0.63v-0.17h1.53v0.17c-0.51,0-0.64,0.13-0.84,0.73L3.6,28.35
		H3.49l-0.83-2.61l-0.85,2.61H1.71L0.8,25.49c-0.2-0.61-0.33-0.73-0.8-0.73v-0.17h1.81v0.17c-0.48,0-0.61,0.12-0.44,0.63l0.55,1.7
		l0.82-2.5H2.9L3.7,27.1z"/>
	<path class="st25" d="M6.48,28.31c-0.9,0-1.63-0.68-1.63-1.5c0-0.82,0.73-1.49,1.63-1.49s1.63,0.68,1.63,1.49
		C8.11,27.64,7.38,28.31,6.48,28.31z M6.48,25.58c-0.75,0-1.01,0.69-1.01,1.23c0,0.55,0.26,1.23,1.01,1.23
		c0.76,0,1.02-0.68,1.02-1.23C7.5,26.27,7.24,25.58,6.48,25.58z"/>
	<path class="st24" d="M16.45,28.04v0.17h-1.87v-0.17c0.55,0,0.64-0.14,0.64-0.98v-1.33c0-0.83-0.1-0.97-0.64-0.97v-0.17h1.69
		c0.84,0,1.31,0.44,1.31,1.03c0,0.58-0.47,1.03-1.31,1.03h-0.47v0.41C15.81,27.9,15.9,28.04,16.45,28.04z M16.27,24.89h-0.47v1.45
		h0.47c0.46,0,0.67-0.33,0.67-0.72C16.94,25.23,16.73,24.89,16.27,24.89z"/>
	<path class="st24" d="M23.18,27.42l-0.04,0.15c-0.07,0.28-0.16,0.38-0.74,0.38h-0.11c-0.42,0-0.5-0.1-0.5-0.69v-0.38
		c0.64,0,0.69,0.06,0.69,0.49h0.16v-1.24h-0.16c0,0.43-0.05,0.49-0.69,0.49v-0.93h0.45c0.58,0,0.67,0.1,0.74,0.38l0.04,0.16h0.13
		l-0.06-0.78h-2.4v0.16c0.46,0,0.53,0.1,0.53,0.69v1.07c0,0.54-0.06,0.68-0.42,0.7c-0.34-0.05-0.58-0.24-0.9-0.61l-0.38-0.42
		c0.51-0.09,0.78-0.42,0.78-0.78c0-0.46-0.38-0.81-1.1-0.81h-1.44v0.16c0.46,0,0.53,0.1,0.53,0.69v1.07c0,0.59-0.07,0.7-0.53,0.7
		v0.16h1.62v-0.16c-0.46,0-0.53-0.11-0.53-0.7v-0.3H19l0.91,1.16h3.35l0.05-0.78H23.18z M18.86,26.79v-1.11h0.33
		c0.37,0,0.53,0.26,0.53,0.56c0,0.29-0.16,0.55-0.53,0.55H18.86z"/>
	<path class="st24" d="M24.84,28.31c-0.33,0-0.61-0.18-0.73-0.28c-0.04,0.04-0.11,0.17-0.13,0.28h-0.16v-1.15h0.16
		c0.07,0.55,0.44,0.88,0.92,0.88c0.26,0,0.47-0.15,0.47-0.4c0-0.22-0.19-0.38-0.52-0.54l-0.47-0.23c-0.33-0.16-0.57-0.43-0.57-0.8
		c0-0.4,0.37-0.74,0.87-0.74c0.27,0,0.5,0.1,0.64,0.22c0.04-0.03,0.08-0.13,0.11-0.23h0.15v0.98h-0.17
		c-0.06-0.39-0.27-0.72-0.7-0.72c-0.23,0-0.44,0.13-0.44,0.34c0,0.22,0.17,0.33,0.56,0.52l0.45,0.23c0.39,0.19,0.55,0.5,0.55,0.75
		C25.83,27.95,25.38,28.31,24.84,28.31z"/>
	<path class="st24" d="M27.35,28.31c-0.33,0-0.61-0.18-0.73-0.28c-0.04,0.04-0.11,0.17-0.13,0.28h-0.16v-1.15h0.16
		c0.07,0.55,0.44,0.88,0.92,0.88c0.26,0,0.47-0.15,0.47-0.4c0-0.22-0.19-0.38-0.52-0.54l-0.47-0.23c-0.33-0.16-0.57-0.43-0.57-0.8
		c0-0.4,0.37-0.74,0.87-0.74c0.27,0,0.5,0.1,0.64,0.22c0.04-0.03,0.08-0.13,0.11-0.23h0.16v0.98h-0.17
		c-0.06-0.39-0.27-0.72-0.7-0.72c-0.23,0-0.44,0.13-0.44,0.34c0,0.22,0.17,0.33,0.56,0.52l0.45,0.23c0.39,0.19,0.55,0.5,0.55,0.75
		C28.35,27.95,27.9,28.31,27.35,28.31z"/>
</g>
</svg>
