<?xml version="1.0" encoding="utf-8"?>
<!-- Generator: Adobe Illustrator 24.0.1, SVG Export Plug-In . SVG Version: 6.00 Build 0)  -->
<svg version="1.1" id="Layer_1" xmlns="http://www.w3.org/2000/svg" xmlns:xlink="http://www.w3.org/1999/xlink" x="0px" y="0px"
	 viewBox="0 0 114 28" style="enable-background:new 0 0 114 28;" xml:space="preserve">
<style type="text/css">
	.st0{fill:#1E1F26;}
	.st1{fill:#FFFFFF;}
</style>
<g shape-rendering="crispEdges">
	<rect class="st0" width="114" height="28" />
</g>
<g>
	<path class="st1" d="M30.3,23.3c-0.2,0-0.4-0.1-0.5-0.2l-8.3-5.5c-0.1-0.1-0.2-0.1-0.2-0.2c0,0,0,0,0,0c0,0,0,0,0,0l0,0
		c0,0,0,0,0,0C21.1,17.1,21,17,21,16.8v-5.6c0-0.2,0-0.3,0.1-0.5c0.1-0.1,0.2-0.2,0.3-0.3l8.3-5.5c0.3-0.2,0.7-0.2,1,0l8.4,5.6
		c0.2,0.1,0.3,0.3,0.4,0.5c0,0.1,0,0.2,0,0.3v5.5c0,0.2,0,0.4-0.1,0.6c-0.1,0.1-0.2,0.2-0.3,0.3l-8.3,5.5c-0.1,0.1-0.2,0.1-0.3,0.1
		C30.4,23.3,30.4,23.3,30.3,23.3z M31.2,17.2v3.5l5.9-3.9L34.5,15L31.2,17.2z M23.5,16.8l5.9,3.9v-3.5L26.2,15L23.5,16.8z M27.7,14
		l2.6,1.7l2.6-1.7l-2.6-1.7L27.7,14z M22.8,12.8v2.4l1.8-1.2L22.8,12.8z M36.1,14l1.8,1.2v-2.4L36.1,14z M23.5,11.2l2.6,1.7l3.3-2.2
		V7.2L23.5,11.2z M31.2,10.7l3.3,2.2l2.6-1.7l-5.9-3.9V10.7z M92.1,20.2h-6.9c-0.5,0-0.9-0.4-0.9-0.9v-5.3c0,0,0-0.1,0-0.1
		s0-0.1,0-0.1V8.7c0-0.5,0.4-0.9,0.9-0.9h6.9c0.5,0,0.9,0.4,0.9,0.9s-0.4,0.9-0.9,0.9h-6v3.6h3.7c0.5,0,0.9,0.4,0.9,0.9
		c0,0.5-0.4,0.9-0.9,0.9h-3.7v3.6h6c0.5,0,0.9,0.4,0.9,0.9C92.9,19.8,92.6,20.2,92.1,20.2z M72.2,20.2c-0.5,0-0.9-0.4-0.9-0.9V8.7
		c0-0.5,0.4-0.9,0.9-0.9h4.6c2.2,0,3.9,1.8,3.9,3.9s-1.8,3.9-3.9,3.9h-3.7v3.7C73.1,19.8,72.7,20.2,72.2,20.2z M73.1,13.9h3.7
		c1.2,0,2.2-1,2.2-2.2s-1-2.2-2.2-2.2h-3.7V13.9z M66.1,20.2h-6.9c-0.5,0-0.9-0.4-0.9-0.9V8.7c0-0.5,0.4-0.9,0.9-0.9h6.9
		c0.5,0,0.9,0.4,0.9,0.9s-0.4,0.9-0.9,0.9h-6v3.6h3.7c0.5,0,0.9,0.4,0.9,0.9c0,0.5-0.4,0.9-0.9,0.9h-3.7v3.6h6
		c0.5,0,0.9,0.4,0.9,0.9C67,19.8,66.6,20.2,66.1,20.2z M106.6,20.2c-0.3,0-0.5-0.1-0.7-0.3l-6.8-8.7v8.1c0,0.5-0.4,0.9-0.9,0.9
		c-0.5,0-0.9-0.4-0.9-0.9V8.7c0-0.4,0.2-0.7,0.6-0.8c0.4-0.1,0.7,0,1,0.3l6.8,8.7V8.7c0-0.5,0.4-0.9,0.9-0.9c0.5,0,0.9,0.4,0.9,0.9
		v10.7c0,0.4-0.2,0.7-0.6,0.8C106.8,20.2,106.7,20.2,106.6,20.2z M48.6,20.2h-3.8c-0.5,0-0.9-0.4-0.9-0.9V8.7c0-0.5,0.4-0.9,0.9-0.9
		h3.8c3.5,0,6.2,2.7,6.2,6.2v0C54.8,17.5,52.2,20.2,48.6,20.2z M45.7,18.5h2.9c2.6,0,4.5-1.9,4.5-4.5v0c0-2.6-1.9-4.5-4.5-4.5h-2.9
		V18.5z M12.8,20.2c-3.5,0-6.2-2.7-6.2-6.2s2.7-6.2,6.2-6.2c1.7,0,3.3,0.6,4.4,1.8c0.3,0.3,0.3,0.9,0,1.2c-0.3,0.3-0.9,0.3-1.2,0
		C15.1,10,14,9.5,12.8,9.5c-2.6,0-4.5,1.9-4.5,4.5c0,2.6,1.9,4.5,4.5,4.5c1.5,0,2.6-0.7,3.2-1.3c0.4-0.3,0.9-0.3,1.2,0
		c0.3,0.4,0.3,0.9,0,1.2C15.9,19.6,14.4,20.2,12.8,20.2z"/>
</g>
</svg>
