<?xml version="1.0" encoding="utf-8"?>
<!-- Generator: Adobe Illustrator 27.2.0, SVG Export Plug-In . SVG Version: 6.00 Build 0)  -->
<svg version="1.1" id="Layer_1" xmlns="http://www.w3.org/2000/svg" xmlns:xlink="http://www.w3.org/1999/xlink" x="0px" y="0px"
	 viewBox="0 0 23.6 28.4" style="enable-background:new 0 0 23.6 28.4;" xml:space="preserve">
<style type="text/css">
	.st0{fill:#F26C31;}
</style>
<g>
	<path class="st0" d="M23.6,8.2C23.6,8.2,23.5,8.2,23.6,8.2c0,0.4-0.1,0.8-0.2,1.2c-0.1,0.4-0.2,0.7-0.3,1c-0.4,0.9-0.9,1.7-1.7,2.3
		c-0.7,0.6-1.6,1-2.5,1.2c-0.2,0-0.5,0.1-0.7,0.1c-0.2,0-0.4,0-0.5,0c-1.1,0-2.3,0-3.4,0c0,0,0,0-0.1,0c0-0.1,0-0.2,0.1-0.2
		c0.2-0.8,0.4-1.6,0.6-2.4c0.2-0.7,0.6-1.1,1.3-1.2c0.1,0,0.2,0,0.3,0c0.4,0,0.8,0,1.2,0c0.8,0,1.4-0.4,1.8-1
		c0.2-0.3,0.2-0.5,0.3-0.8c0.1-0.5-0.1-1-0.4-1.4c-0.3-0.5-0.8-0.8-1.3-0.9c-0.1,0-0.3,0-0.4,0c-0.7,0-1.4,0-2.1,0
		c-0.1,0-0.1,0-0.1,0.1c-0.3,1-0.5,2-0.8,3.1c-0.5,1.7-0.9,3.5-1.4,5.2c-0.2,0.8-0.4,1.6-0.6,2.3c-0.2,0.7-0.6,1.1-1.3,1.2
		c-0.1,0-0.2,0-0.3,0c-0.9,0-1.8,0-2.7,0c0,0,0,0-0.1,0c0-0.1,0.1-0.2,0.1-0.4c0.4-1.6,0.9-3.2,1.3-4.8c0.5-1.7,0.9-3.5,1.4-5.2
		c0.3-1.3,0.7-2.5,1-3.8C12,3.5,12,3.3,12.1,3.1c0.2-0.5,0.6-0.9,1.2-1c0.1,0,0.1,0,0.2,0c1.5,0,2.9,0,4.4,0c0,0,0,0,0,0
		c0.1,0,0.2,0,0.3,0c0.2,0,0.4,0.1,0.6,0.1c0.6,0.1,1.2,0.3,1.7,0.7c0.7,0.4,1.2,0.9,1.7,1.5c0.5,0.7,0.8,1.4,1,2.2
		c0.1,0.3,0.1,0.6,0.1,0.9c0,0.1,0,0.1,0,0.2C23.6,7.8,23.6,8,23.6,8.2z"/>
	<path class="st0" d="M10.3,6c0,0.1-0.1,0.3-0.1,0.4C10,7.2,9.9,7.9,9.6,8.7c-0.2,0.6-0.6,1-1.2,1.2c-0.1,0-0.2,0-0.4,0
		c-0.7,0-1.4,0-2.2,0c-0.5,0-1,0.2-1.3,0.5c-0.4,0.3-0.6,0.8-0.7,1.3c-0.2,1,0.4,2.1,1.6,2.4c0.1,0,0.3,0,0.5,0c0.4,0,0.8,0,1.3,0
		c0.3,0,0.6,0.2,0.7,0.5c0,0.1,0,0.3,0,0.4c-0.3,1-0.5,1.9-0.8,2.9c0,0,0,0.1-0.1,0.1c-0.5,0-1.1,0-1.6,0c-0.4,0-0.9-0.1-1.3-0.2
		c-0.8-0.2-1.5-0.6-2.2-1.2c-0.9-0.8-1.5-1.7-1.8-2.8c-0.1-0.3-0.2-0.6-0.2-0.9c0-0.3,0-0.5,0-0.8c0-0.5,0.1-1.1,0.2-1.6
		C0.4,9.8,0.7,9.2,1,8.7c0.7-1.1,1.7-1.9,3-2.3c0.4-0.1,0.7-0.2,1.1-0.3c0.2,0,0.3,0,0.5,0c0.2,0,0.4,0,0.6,0C7.5,6,8.9,6,10.3,6
		C10.3,6,10.3,6,10.3,6z"/>
</g>
<g>
	<path class="st0" d="M4.7,24.3c0.1-0.3,0.2-0.7,0.3-0.9c0.1-0.2,0.3-0.3,0.5-0.3c0.1,0,0.2,0,0.3,0c0.4,0,0.7-0.3,0.7-0.7
		c0-0.4-0.3-0.7-0.7-0.7c-0.2,0-0.4,0-0.7,0C5,21.6,5,21.8,5,21.9c-0.3,1-0.6,2.1-0.8,3.1c0,0.1,0,0.2-0.1,0.2
		c-0.1,0.2-0.2,0.3-0.5,0.3c-0.2,0-0.5,0-0.7,0c-0.1,0-0.2-0.1-0.1-0.2c0.4-1.5,0.8-3,1.2-4.5c0.1-0.2,0.2-0.4,0.5-0.4
		c0.6,0,1.2,0,1.7,0c1.2,0.2,1.9,1.5,1.3,2.7c-0.3,0.7-0.9,1.1-1.7,1.1C5.4,24.3,5.1,24.3,4.7,24.3z"/>
	<path class="st0" d="M18.4,24.1c0.1-0.2,0.1-0.4,0.2-0.5c0.1-0.2,0.2-0.2,0.4-0.2c0.2,0,0.5,0,0.7,0c0.1,0,0.2-0.1,0.3-0.2
		c0.1-0.2,0-0.3-0.2-0.3c-0.4,0-0.8,0-1.2,0c-0.2,0-0.3,0.1-0.3,0.3c-0.1,0.3-0.2,0.6-0.3,1c-0.1,0.3,0,0.4,0.3,0.4
		c0.8,0,1.5,0,2.3,0c0.1,0,0.2,0,0.3,0c-0.1,0.3-0.1,0.6-0.2,0.8c-0.1,0.2-0.2,0.3-0.4,0.3c-0.9,0-1.7,0-2.6,0
		c-0.6,0-1.1-0.6-0.9-1.2c0.1-0.5,0.3-1.1,0.4-1.6c0.2-0.6,0.7-1,1.4-1c0.6,0,1.1,0,1.7,0c0.7,0,1.2,0.6,1.1,1.3
		c0,0.2-0.1,0.3-0.1,0.5c-0.1,0.4-0.4,0.6-0.8,0.6c-0.6,0-1.2,0-1.8,0C18.5,24.1,18.4,24.1,18.4,24.1z"/>
	<path class="st0" d="M10.4,23.3c0,0.6-0.3,0.8-0.7,0.8c-0.2,0-0.4,0-0.6,0c-0.1,0-0.1,0.1-0.2,0.2c0.1,0.1,0.1,0.2,0.2,0.2
		c0.4,0,0.8,0,1.3,0c0.1,0,0.2-0.1,0.2-0.2c0.1-0.4,0.2-0.8,0.3-1.1c0.1-0.2,0-0.3-0.2-0.3c-0.6,0-1.3,0-1.9,0
		c-0.4,0-0.7-0.3-0.5-0.7c0.1-0.5,0-0.4,0.5-0.4c0.8,0,1.6,0,2.4,0c0.7,0,1.2,0.6,1.1,1.3c-0.2,0.6-0.3,1.2-0.5,1.9
		c-0.1,0.4-0.4,0.6-0.8,0.6c-0.7,0-1.4,0-2.1,0c-0.6,0-1.1-0.5-1.1-1.1c0-0.6,0.5-1.2,1.1-1.2c0.5,0,1,0,1.5,0
		C10.2,23.3,10.3,23.3,10.4,23.3z"/>
	<path class="st0" d="M13.8,21.7c0.3,0,0.7,0,1,0c1.1,0.1,1.8,1.2,1.6,2.2c-0.1,0.4-0.2,0.9-0.3,1.3c-0.1,0.2-0.2,0.3-0.4,0.3
		c-0.2,0-0.4,0-0.5,0c-0.3,0-0.4-0.1-0.3-0.4c0.1-0.4,0.2-0.9,0.3-1.3c0-0.1,0-0.2,0-0.2c0-0.4-0.3-0.7-0.7-0.7c-0.2,0-0.4,0-0.6,0
		c-0.2,0-0.2,0.1-0.3,0.2c-0.2,0.7-0.4,1.4-0.5,2.1c-0.1,0.3-0.2,0.4-0.5,0.4c-0.2,0-0.3,0-0.5,0c-0.3,0-0.3-0.1-0.3-0.4
		c0.1-0.4,0.2-0.8,0.3-1.1c0.2-0.7,0.4-1.4,0.6-2.1c0-0.2,0.1-0.3,0.3-0.2C13.3,21.7,13.6,21.7,13.8,21.7
		C13.8,21.7,13.8,21.7,13.8,21.7z"/>
	<path class="st0" d="M3.4,21.7c-0.1,0.3-0.2,0.6-0.3,0.9c-0.1,0.2-0.2,0.3-0.5,0.3c-0.2,0-0.5,0-0.7,0c-0.4,0-0.7,0.3-0.7,0.7
		c0,0.4,0.3,0.7,0.7,0.7c0.1,0,0.2,0,0.4,0c0.2,0,0.3,0.1,0.2,0.3c-0.1,0.2-0.1,0.5-0.2,0.7c0,0.1-0.1,0.2-0.2,0.2
		C1,25.6,0.2,25,0,23.8c-0.1-0.9,0.6-1.9,1.6-2.1c0.2,0,0.3,0,0.5,0C2.5,21.7,2.9,21.7,3.4,21.7z"/>
	<path class="st0" d="M20.9,25.5c0-0.1,0-0.2,0.1-0.3c0.4-1.5,0.8-3,1.2-4.5c0.1-0.3,0.2-0.4,0.5-0.4c0.2,0,0.4,0,0.5,0
		c0.2,0,0.3,0.1,0.2,0.3c-0.3,1.2-0.6,2.4-1,3.6c-0.2,0.6-0.6,1-1.3,1.2C21.2,25.6,21.1,25.5,20.9,25.5z"/>
</g>
</svg>
