<?xml version="1.0" encoding="utf-8"?>
<!-- Generator: Adobe Illustrator 27.2.0, SVG Export Plug-In . SVG Version: 6.00 Build 0)  -->
<svg version="1.1" id="Layer_1" xmlns="http://www.w3.org/2000/svg" xmlns:xlink="http://www.w3.org/1999/xlink" x="0px" y="0px"
	 viewBox="0 0 23.6 28.4" style="enable-background:new 0 0 23.6 28.4;" xml:space="preserve">
<style type="text/css">
	.st0{clip-path:url(#SVGID_00000070107967140376882300000000315278228067466170_);}
	.st1{fill:#F03C2E;}
	.st2{fill:#362701;}
	.st3{clip-path:url(#SVGID_00000162342555249222918730000014197021093570256548_);}
	.st4{clip-path:url(#SVGID_00000049915567316402957140000018197155450362220969_);}
</style>
<g>
	<defs>
		<rect id="SVGID_1_" x="0" y="0.1" width="23.6" height="23.6"/>
	</defs>
	<clipPath id="SVGID_00000060749717327631484220000014179325974304997287_">
		<use xlink:href="#SVGID_1_"  style="overflow:visible;"/>
	</clipPath>
	<g style="clip-path:url(#SVGID_00000060749717327631484220000014179325974304997287_);">
		<path class="st1" d="M23.1,10.8L12.8,0.5c-0.6-0.6-1.6-0.6-2.1,0c0,0,0,0,0,0L8.5,2.7l2.7,2.7c0.7-0.2,1.4-0.1,1.9,0.4
			c0.5,0.5,0.7,1.2,0.4,1.9l2.6,2.6c0.7-0.2,1.4-0.1,1.9,0.4c0.7,0.7,0.7,1.9,0,2.6c0,0,0,0,0,0c-0.7,0.7-1.9,0.7-2.6,0
			c-0.5-0.5-0.7-1.3-0.4-2l-2.4-2.4v6.4c0.9,0.4,1.3,1.5,0.8,2.4c-0.1,0.2-0.2,0.3-0.3,0.5c-0.7,0.7-1.9,0.7-2.6,0c0,0,0,0,0,0
			c-0.7-0.7-0.7-1.9,0-2.6c0,0,0,0,0,0c0.2-0.2,0.4-0.3,0.6-0.4V8.8c-0.9-0.4-1.4-1.4-1-2.4c0,0,0,0,0,0L7.5,3.7l-7.1,7.1
			c-0.6,0.6-0.6,1.6,0,2.1l10.3,10.3c0.6,0.6,1.6,0.6,2.1,0L23.1,13C23.7,12.4,23.7,11.4,23.1,10.8"/>
	</g>
</g>
<path class="st2" d="M8.1,22.3c-0.5,0-0.9,0.2-0.9,0.9c0,0.5,0.2,0.8,0.9,0.8c0.5,0,0.9-0.3,0.9-0.8C8.9,22.6,8.6,22.3,8.1,22.3z
	 M7.1,26.6c-0.1,0.1-0.2,0.3-0.2,0.5c0,0.4,0.5,0.5,1.1,0.5c0.5,0,1.3,0,1.3-0.5c0-0.3-0.4-0.3-0.8-0.3L7.1,26.6z M9.8,22.4
	c0.2,0.2,0.3,0.5,0.3,0.9c0,1-0.8,1.6-2,1.6c-0.3,0-0.6,0-0.7-0.1l-0.3,0.5L8,25.4c1.6,0.1,2.5,0.1,2.5,1.4c0,1.1-0.9,1.7-2.5,1.7
	c-1.7,0-2.3-0.4-2.3-1.2c0-0.4,0.2-0.6,0.5-0.9c-0.3-0.1-0.4-0.4-0.4-0.6c0-0.2,0.1-0.4,0.3-0.6c0.2-0.2,0.4-0.4,0.6-0.6
	c-0.5-0.2-0.8-0.7-0.8-1.4c0-1.1,0.7-1.8,2.1-1.8c0.4,0,0.6,0,0.9,0.1h1.8v0.8L9.8,22.4"/>
<g>
	<defs>
		<rect id="SVGID_00000030478193865088491300000010644502648291437724_" x="11.1" y="19" width="2.7" height="7.3"/>
	</defs>
	<clipPath id="SVGID_00000074417590356274036130000015626111350955660957_">
		<use xlink:href="#SVGID_00000030478193865088491300000010644502648291437724_"  style="overflow:visible;"/>
	</clipPath>
	<g style="clip-path:url(#SVGID_00000074417590356274036130000015626111350955660957_);">
		<path class="st2" d="M12.3,20.7c-0.5,0-0.8-0.3-0.8-0.8c0-0.5,0.3-0.8,0.8-0.8c0.5,0,0.8,0.3,0.8,0.8
			C13.1,20.4,12.8,20.7,12.3,20.7z M11.1,26.2v-0.7l0.5-0.1c0.1,0,0.1,0,0.1-0.2v-2.7c0-0.1,0-0.2-0.1-0.2l-0.5-0.2l0.1-0.7h1.9v3.8
			c0,0.1,0,0.2,0.1,0.2l0.5,0.1v0.7L11.1,26.2"/>
	</g>
</g>
<g>
	<defs>
		<rect id="SVGID_00000137850515802579055830000009248201842157400253_" x="13.6" y="19.9" width="3.8" height="6.4"/>
	</defs>
	<clipPath id="SVGID_00000106112679472424103730000005307279148468664479_">
		<use xlink:href="#SVGID_00000137850515802579055830000009248201842157400253_"  style="overflow:visible;"/>
	</clipPath>
	<g style="clip-path:url(#SVGID_00000106112679472424103730000005307279148468664479_);">
		<path class="st2" d="M17.4,25.9c-0.4,0.2-1,0.4-1.5,0.4c-1.1,0-1.5-0.4-1.5-1.5v-2.4c0-0.1,0-0.1-0.1-0.1h-0.6v-0.8
			c0.8-0.1,1.1-0.5,1.2-1.5h0.9v1.3c0,0.1,0,0.1,0.1,0.1h1.3v0.9h-1.4v2.2c0,0.5,0.1,0.8,0.6,0.8c0.3,0,0.5-0.1,0.7-0.1L17.4,25.9"
			/>
	</g>
</g>
</svg>
